<svg width="167" height="34" viewBox="0 0 167 34" fill="none" xmlns="http://www.w3.org/2000/svg">
<g clip-path="url(#clip0_323_3)">
<g clip-path="url(#clip1_323_3)">
<path d="M35.5965 -1H-0.403484V35H35.5965V-1Z" fill="#EAEAEA"/>
<path d="M17.5587 13.1395H27.1208V7.40234H17.5587V13.1395Z" fill="#151515"/>
<path d="M7.99691 26.5262H17.5588V20.7891H7.99691V26.5262Z" fill="#151515"/>
<path d="M7.99691 16.9654H17.5588V13.1406H7.99691V16.9654Z" fill="#151515"/>
<path d="M17.5584 20.7897H27.1206V16.9648H17.5584V20.7897Z" fill="#151515"/>
</g>
</g>
<path d="M128.308 13.3255V16.4211H140.252V17.9679H128.308V20.6767H140.648V22.6102H125.521V11.3921L140.648 11.3962V13.3255H128.308Z" fill="#121212"/>
<path d="M115.767 11.3962L108.924 22.6102H105.702L98.8595 11.3921H101.677L107.321 20.5526L112.95 11.3921L115.767 11.3962Z" fill="#121212"/>
<path d="M76.7592 13.3255V16.4211H88.701V17.9679H76.7592V20.6767H89.0997V22.6102H73.9721V11.3921L89.0997 11.3962V13.3255H76.7592Z" fill="#121212"/>
<path d="M50.9836 13.326V16.4216H62.9254V17.9684H50.9836V22.6107H48.1965V11.3926L63.3242 11.3966V13.326H50.9836Z" fill="#121212"/>
<path d="M164.829 18.9561L163.811 18.4453L164.844 17.9609C165.313 17.739 165.571 17.5294 165.734 17.2302C165.931 16.87 166.024 16.3266 166.024 15.5206C166.024 14.3565 165.977 13.632 165.867 13.0987C165.758 12.5676 165.587 12.2277 165.313 11.9997C165.029 11.7636 164.588 11.611 163.927 11.5174C163.289 11.4258 162.453 11.3892 161.044 11.3892H150.004V22.6093H152.783V19.6664H163.319V22.6093H166.02V21.8196C166.006 20.6982 165.913 20.0287 165.722 19.646C165.567 19.3367 165.347 19.2166 164.827 18.9541L164.829 18.9561ZM163.305 17.5783H152.785V13.3206H163.305V17.5783Z" fill="#121212"/>
<defs>
<clipPath id="clip0_323_3">
<rect width="34" height="34" fill="white" transform="translate(0.596516)"/>
</clipPath>
<clipPath id="clip1_323_3">
<rect x="-0.403484" y="-1" width="36" height="36" rx="2" fill="white"/>
</clipPath>
</defs>
</svg>
